<svg xmlns="http://www.w3.org/2000/svg" xmlns:xlink="http://www.w3.org/1999/xlink" width="300" zoomAndPan="magnify" viewBox="0 0 224.87999 149.999998" height="200" preserveAspectRatio="xMidYMid meet" version="1.0"><defs><clipPath id="b45a029ae5"><path d="M 22.625 39.210938 L 90.816406 39.210938 L 90.816406 107.496094 L 22.625 107.496094 Z M 22.625 39.210938 " clip-rule="nonzero"/></clipPath><clipPath id="61c8329bd2"><path d="M 55.148438 105.042969 L 57.539062 105.042969 L 57.539062 107.496094 L 55.148438 107.496094 Z M 55.148438 105.042969 " clip-rule="nonzero"/></clipPath></defs><g clip-path="url(#b45a029ae5)"><path fill="#0e606e" d="M 66.8125 64.371094 L 65.734375 64.371094 L 65.734375 44.722656 C 65.734375 44.003906 65.257812 43.464844 64.660156 43.464844 L 48.808594 43.464844 C 48.210938 43.464844 47.730469 44.003906 47.730469 44.722656 L 47.730469 45.140625 C 46.296875 45.621094 44.917969 46.160156 43.484375 46.878906 L 43.484375 44.722656 C 43.484375 41.789062 45.816406 39.210938 48.808594 39.210938 L 64.660156 39.210938 C 67.648438 39.210938 69.921875 41.789062 69.921875 44.722656 L 69.921875 60.117188 L 73.8125 60.117188 L 74.050781 60.535156 C 71.578125 61.695312 69.164062 62.972656 66.8125 64.371094 Z M 30.265625 86.59375 L 28.109375 86.59375 C 25.179688 86.59375 22.605469 84.257812 22.605469 81.320312 L 22.605469 65.386719 C 22.605469 62.394531 25.179688 60.117188 28.109375 60.117188 L 43.484375 60.117188 L 43.484375 56.222656 C 44.917969 55.265625 46.175781 54.425781 47.730469 53.707031 L 47.730469 64.371094 L 28.109375 64.371094 C 27.390625 64.371094 26.855469 64.847656 26.855469 65.386719 L 26.855469 81.320312 C 26.855469 81.859375 27.390625 82.339844 28.109375 82.339844 L 28.527344 82.339844 C 29.007812 83.777344 29.546875 85.214844 30.265625 86.59375 Z M 69.921875 99.832031 L 69.921875 102.046875 C 69.921875 104.921875 67.648438 107.496094 64.660156 107.496094 L 48.808594 107.496094 C 47.191406 107.496094 45.816406 106.777344 44.800781 105.640625 C 44.023438 104.683594 43.484375 103.363281 43.484375 102.046875 L 43.484375 86.59375 L 39.65625 86.59375 C 38.699219 85.214844 37.859375 83.898438 37.144531 82.339844 L 47.730469 82.339844 L 47.730469 102.046875 C 47.730469 102.707031 48.210938 103.246094 48.808594 103.246094 L 64.660156 103.246094 C 65.257812 103.246094 65.734375 102.707031 65.734375 102.046875 L 65.734375 101.566406 C 67.171875 101.089844 68.546875 100.550781 69.921875 99.832031 Z M 82.246094 59.277344 C 73.332031 63.890625 61.191406 74.792969 55.269531 82.339844 C 51.859375 77.726562 47.789062 72.21875 43.542969 69.28125 C 47.851562 70.480469 51.378906 72.816406 55.269531 74.554688 C 63.34375 68.324219 72.554688 62.511719 82.246094 59.277344 Z M 54.96875 64.429688 C 56.703125 64.429688 58.078125 65.808594 58.078125 67.484375 C 58.078125 69.222656 56.703125 70.601562 54.96875 70.601562 C 53.292969 70.601562 51.859375 69.222656 51.859375 67.484375 C 51.859375 65.808594 53.292969 64.429688 54.96875 64.429688 Z M 90.800781 65.386719 L 90.800781 81.320312 C 90.800781 84.316406 88.289062 86.59375 85.355469 86.59375 L 69.921875 86.59375 L 69.921875 90.488281 C 68.546875 91.445312 67.292969 92.285156 65.675781 93.003906 L 65.675781 82.339844 L 85.355469 82.339844 C 86.015625 82.339844 86.613281 81.859375 86.613281 81.320312 L 86.613281 65.386719 C 86.613281 64.847656 86.015625 64.371094 85.355469 64.371094 L 84.9375 64.371094 C 84.457031 63.113281 84.039062 61.972656 83.5 60.777344 L 84.699219 60.117188 L 85.355469 60.117188 C 88.289062 60.117188 90.800781 62.453125 90.800781 65.386719 Z M 90.800781 65.386719 " fill-opacity="1" fill-rule="nonzero"/></g><path fill="#ff9700" d="M 75.84375 59.699219 C 74.648438 58.140625 73.332031 56.644531 71.835938 55.386719 L 71.835938 50.113281 C 75.007812 52.210938 77.757812 54.90625 79.851562 58.082031 C 78.496094 58.601562 77.160156 59.140625 75.84375 59.699219 Z M 79.074219 80.484375 C 79.792969 78.207031 80.152344 75.8125 80.152344 73.355469 C 80.152344 70 79.433594 66.824219 78.179688 63.890625 C 79.375 63.09375 80.589844 62.351562 81.828125 61.675781 C 83.5 65.207031 84.398438 69.160156 84.398438 73.355469 C 84.398438 75.8125 84.101562 78.207031 83.5 80.484375 C 83.5 80.484375 79.074219 80.484375 79.074219 80.484375 Z M 49.644531 95.757812 C 51.859375 96.476562 54.25 96.835938 56.703125 96.835938 C 63.941406 96.835938 70.34375 93.601562 74.648438 88.449219 L 79.914062 88.449219 C 74.828125 96.355469 66.09375 101.089844 56.703125 101.089844 C 54.25 101.089844 51.859375 100.730469 49.644531 100.128906 C 49.644531 100.128906 49.644531 95.757812 49.644531 95.757812 Z M 34.332031 66.226562 C 33.671875 68.503906 33.253906 70.898438 33.253906 73.355469 C 33.253906 80.542969 36.484375 87.011719 41.628906 91.324219 L 41.628906 96.597656 C 33.792969 91.445312 29.066406 82.757812 29.066406 73.355469 C 29.066406 70.898438 29.367188 68.503906 29.964844 66.226562 C 29.964844 66.226562 34.332031 66.226562 34.332031 66.226562 Z M 56.703125 45.621094 C 59.15625 45.621094 61.546875 45.980469 63.820312 46.519531 L 63.820312 50.953125 C 61.546875 50.234375 59.214844 49.875 56.703125 49.875 C 49.523438 49.875 43.066406 53.109375 38.757812 58.199219 L 33.492188 58.199219 C 38.636719 50.351562 47.3125 45.621094 56.703125 45.621094 Z M 56.703125 45.621094 " fill-opacity="1" fill-rule="nonzero"/><g clip-path="url(#61c8329bd2)"><path fill="#333333" d="M 55.925781 107.496094 L 55.984375 107.496094 C 56.464844 106.859375 56.960938 106.21875 57.480469 105.582031 C 57.003906 106.179688 56.464844 106.839844 55.925781 107.496094 Z M 55.925781 107.496094 " fill-opacity="1" fill-rule="nonzero"/></g><path fill="#0e606e" d="M 104.257812 75.09375 L 99.652344 75.09375 L 99.652344 55.445312 L 104.378906 55.445312 L 111.914062 67.363281 L 111.914062 55.445312 L 116.519531 55.445312 L 116.519531 75.09375 L 111.855469 75.09375 L 104.257812 63.113281 Z M 104.257812 75.09375 " fill-opacity="1" fill-rule="nonzero"/><path fill="#0e606e" d="M 124 75.453125 C 121.605469 75.453125 120.050781 74.59375 119.332031 72.875 C 119.171875 72.554688 119.054688 72.21875 118.972656 71.859375 C 118.894531 71.5 118.835938 71.078125 118.792969 70.601562 C 118.753906 70.082031 118.734375 69.441406 118.734375 68.683594 L 118.734375 60.476562 L 123.042969 60.476562 L 123.042969 68.683594 C 123.042969 69.441406 123.101562 70.019531 123.222656 70.421875 C 123.300781 70.820312 123.460938 71.140625 123.699219 71.378906 C 124.019531 71.738281 124.535156 71.917969 125.253906 71.917969 C 125.734375 71.917969 126.132812 71.859375 126.453125 71.738281 C 126.769531 71.617188 127.03125 71.4375 127.230469 71.199219 C 127.585938 70.71875 127.765625 69.878906 127.765625 68.683594 L 127.765625 60.476562 L 132.074219 60.476562 L 132.074219 75.09375 L 127.765625 75.09375 L 127.765625 73.535156 C 127.328125 74.171875 126.808594 74.652344 126.210938 74.972656 C 125.613281 75.292969 124.875 75.453125 124 75.453125 Z M 124 75.453125 " fill-opacity="1" fill-rule="nonzero"/><path fill="#0e606e" d="M 141.285156 75.453125 C 139.769531 75.453125 138.433594 75.113281 137.277344 74.433594 C 136.121094 73.792969 135.222656 72.914062 134.585938 71.796875 C 133.988281 70.640625 133.6875 69.339844 133.6875 67.902344 C 133.6875 66.984375 133.828125 66.066406 134.109375 65.148438 C 134.386719 64.230469 134.824219 63.390625 135.425781 62.632812 C 136.0625 61.875 136.839844 61.273438 137.757812 60.835938 C 138.714844 60.398438 139.851562 60.175781 141.167969 60.175781 C 142.125 60.175781 143.0625 60.316406 143.976562 60.597656 C 144.855469 60.875 145.652344 61.335938 146.371094 61.972656 C 147.089844 62.574219 147.667969 63.371094 148.105469 64.371094 C 148.503906 65.367188 148.703125 66.566406 148.703125 67.964844 L 148.703125 68.683594 L 138.234375 68.683594 C 138.316406 69.480469 138.554688 70.121094 138.953125 70.601562 C 139.273438 71 139.652344 71.277344 140.089844 71.4375 C 140.527344 71.597656 141.007812 71.679688 141.523438 71.679688 C 142.164062 71.679688 142.722656 71.519531 143.199219 71.199219 C 143.640625 70.878906 143.957031 70.5 144.15625 70.058594 L 148.464844 70.058594 C 148.226562 71.019531 147.785156 71.917969 147.148438 72.757812 C 146.550781 73.554688 145.773438 74.195312 144.816406 74.671875 C 143.859375 75.191406 142.683594 75.453125 141.285156 75.453125 Z M 138.355469 65.628906 L 144.335938 65.628906 C 144.296875 65.46875 144.238281 65.269531 144.15625 65.027344 C 144.039062 64.789062 143.859375 64.550781 143.617188 64.308594 C 143.339844 64.03125 143 63.8125 142.601562 63.652344 C 142.203125 63.53125 141.785156 63.472656 141.347656 63.472656 C 140.90625 63.472656 140.488281 63.53125 140.089844 63.652344 C 139.691406 63.8125 139.332031 64.03125 139.011719 64.308594 C 138.773438 64.550781 138.613281 64.789062 138.535156 65.027344 C 138.414062 65.269531 138.355469 65.46875 138.355469 65.628906 Z M 138.355469 65.628906 " fill-opacity="1" fill-rule="nonzero"/><path fill="#0e606e" d="M 154.625 75.09375 L 150.320312 75.09375 L 150.320312 60.476562 L 154.625 60.476562 L 154.625 62.035156 C 155.144531 61.316406 155.703125 60.816406 156.300781 60.535156 C 156.898438 60.296875 157.597656 60.175781 158.394531 60.175781 L 158.992188 60.175781 L 158.992188 64.308594 L 158.214844 64.308594 C 157.617188 64.308594 157.117188 64.371094 156.71875 64.488281 C 156.320312 64.648438 155.980469 64.847656 155.703125 65.089844 C 155.34375 65.449219 155.0625 65.925781 154.863281 66.527344 C 154.707031 67.125 154.625 67.925781 154.625 68.921875 Z M 154.625 75.09375 " fill-opacity="1" fill-rule="nonzero"/><path fill="#0e606e" d="M 162.402344 59.457031 C 161.722656 59.457031 161.144531 59.257812 160.667969 58.859375 C 160.1875 58.5 159.949219 57.960938 159.949219 57.242188 C 159.949219 56.5625 160.1875 56.023438 160.667969 55.625 C 161.144531 55.226562 161.722656 55.027344 162.402344 55.027344 C 163.078125 55.027344 163.65625 55.226562 164.136719 55.625 C 164.613281 56.023438 164.855469 56.5625 164.855469 57.242188 C 164.855469 57.960938 164.613281 58.5 164.136719 58.859375 C 163.65625 59.257812 163.078125 59.457031 162.402344 59.457031 Z M 164.554688 75.09375 L 160.25 75.09375 L 160.25 60.476562 L 164.554688 60.476562 Z M 164.554688 75.09375 " fill-opacity="1" fill-rule="nonzero"/><path fill="#0e606e" d="M 173.765625 75.453125 C 172.25 75.453125 170.914062 75.132812 169.757812 74.492188 C 168.644531 73.855469 167.765625 72.957031 167.128906 71.796875 C 166.488281 70.640625 166.171875 69.28125 166.171875 67.722656 C 166.171875 66.207031 166.46875 64.890625 167.066406 63.769531 C 167.707031 62.652344 168.601562 61.773438 169.757812 61.136719 C 170.914062 60.496094 172.25 60.175781 173.765625 60.175781 C 175.601562 60.175781 177.15625 60.636719 178.433594 61.554688 C 179.710938 62.511719 180.546875 63.789062 180.945312 65.386719 L 176.160156 65.386719 C 175.800781 64.191406 175.003906 63.589844 173.765625 63.589844 C 172.808594 63.589844 172.050781 63.972656 171.496094 64.730469 C 170.894531 65.449219 170.597656 66.445312 170.597656 67.722656 C 170.597656 69.042969 170.894531 70.082031 171.496094 70.839844 C 172.050781 71.597656 172.808594 71.976562 173.765625 71.976562 C 174.484375 71.976562 175.042969 71.796875 175.441406 71.4375 C 175.839844 71.117188 176.101562 70.660156 176.21875 70.058594 L 180.945312 70.058594 C 180.585938 71.738281 179.75 73.054688 178.433594 74.015625 C 177.15625 74.972656 175.601562 75.453125 173.765625 75.453125 Z M 173.765625 75.453125 " fill-opacity="1" fill-rule="nonzero"/><path fill="#0e606e" d="M 186.628906 75.453125 C 185.75 75.453125 184.953125 75.273438 184.234375 74.914062 C 183.519531 74.59375 182.9375 74.113281 182.5 73.476562 C 182.0625 72.796875 181.84375 71.976562 181.84375 71.019531 C 181.84375 70.140625 182.023438 69.421875 182.382812 68.863281 C 182.699219 68.304688 183.140625 67.84375 183.695312 67.484375 C 184.214844 67.125 184.773438 66.867188 185.371094 66.707031 C 186.011719 66.546875 186.589844 66.40625 187.105469 66.285156 L 190.933594 65.628906 C 190.855469 64.910156 190.65625 64.351562 190.335938 63.949219 C 190.019531 63.589844 189.519531 63.410156 188.839844 63.410156 C 188.363281 63.410156 187.902344 63.589844 187.464844 63.949219 C 187.066406 64.269531 186.808594 64.75 186.6875 65.386719 L 182.382812 65.386719 C 182.582031 64.152344 183 63.152344 183.636719 62.394531 C 184.273438 61.632812 185.074219 61.074219 186.03125 60.714844 C 186.945312 60.355469 187.90625 60.175781 188.902344 60.175781 C 189.738281 60.175781 190.554688 60.296875 191.355469 60.535156 C 192.152344 60.777344 192.828125 61.136719 193.386719 61.613281 C 194.027344 62.132812 194.464844 62.734375 194.703125 63.410156 C 194.941406 64.089844 195.082031 64.828125 195.121094 65.628906 C 195.203125 66.425781 195.242188 67.265625 195.242188 68.144531 L 195.242188 75.09375 L 190.875 75.09375 L 190.875 73.355469 C 190.636719 73.914062 190.296875 74.351562 189.859375 74.671875 C 189.417969 74.953125 188.921875 75.152344 188.363281 75.273438 C 187.804688 75.390625 187.226562 75.453125 186.628906 75.453125 Z M 187.882812 72.15625 C 188.402344 72.15625 188.941406 72.039062 189.5 71.796875 C 190.097656 71.519531 190.496094 71.140625 190.695312 70.660156 C 190.855469 70.140625 190.953125 69.480469 190.996094 68.683594 L 188.363281 69.222656 C 187.84375 69.300781 187.464844 69.402344 187.226562 69.519531 C 186.988281 69.601562 186.769531 69.742188 186.570312 69.941406 C 186.449219 70.058594 186.347656 70.199219 186.269531 70.359375 C 186.191406 70.480469 186.148438 70.640625 186.148438 70.839844 C 186.148438 71.320312 186.328125 71.65625 186.6875 71.859375 C 187.046875 72.058594 187.445312 72.15625 187.882812 72.15625 Z M 187.882812 72.15625 " fill-opacity="1" fill-rule="nonzero"/><path fill="#0e606e" d="M 100.550781 86.773438 L 99.472656 86.773438 L 99.472656 80.183594 L 100.550781 80.183594 L 100.550781 83 L 103.539062 83 L 103.539062 80.183594 L 104.617188 80.183594 L 104.617188 86.773438 L 103.539062 86.773438 L 103.539062 83.957031 L 100.550781 83.957031 Z M 100.550781 86.773438 " fill-opacity="1" fill-rule="nonzero"/><path fill="#0e606e" d="M 108.027344 86.832031 C 107.546875 86.832031 107.128906 86.734375 106.769531 86.53125 C 106.414062 86.332031 106.132812 86.035156 105.933594 85.632812 C 105.734375 85.273438 105.632812 84.855469 105.632812 84.375 C 105.632812 84.058594 105.675781 83.757812 105.753906 83.476562 C 105.875 83.160156 106.035156 82.878906 106.234375 82.640625 C 106.433594 82.398438 106.671875 82.21875 106.949219 82.101562 C 107.230469 81.941406 107.570312 81.859375 107.96875 81.859375 C 108.40625 81.859375 108.804688 81.941406 109.164062 82.101562 C 109.523438 82.300781 109.800781 82.578125 110 82.9375 C 110.242188 83.296875 110.359375 83.757812 110.359375 84.316406 L 110.359375 84.554688 L 106.652344 84.554688 C 106.652344 84.636719 106.671875 84.734375 106.710938 84.855469 C 106.75 84.9375 106.789062 85.015625 106.832031 85.09375 C 106.910156 85.375 107.070312 85.59375 107.308594 85.753906 C 107.507812 85.914062 107.75 85.992188 108.027344 85.992188 C 108.347656 85.992188 108.605469 85.914062 108.804688 85.753906 C 109.003906 85.59375 109.144531 85.394531 109.222656 85.15625 L 110.300781 85.15625 C 110.179688 85.476562 110.019531 85.753906 109.820312 85.992188 C 109.621094 86.273438 109.382812 86.492188 109.105469 86.652344 C 108.785156 86.773438 108.425781 86.832031 108.027344 86.832031 Z M 106.710938 83.777344 L 109.285156 83.777344 C 109.285156 83.699219 109.285156 83.617188 109.285156 83.539062 C 109.242188 83.457031 109.203125 83.378906 109.164062 83.296875 C 109.042969 83.097656 108.882812 82.957031 108.683594 82.878906 C 108.484375 82.757812 108.265625 82.699219 108.027344 82.699219 C 107.507812 82.699219 107.128906 82.898438 106.890625 83.296875 C 106.8125 83.378906 106.769531 83.457031 106.769531 83.539062 C 106.730469 83.617188 106.710938 83.699219 106.710938 83.777344 Z M 106.710938 83.777344 " fill-opacity="1" fill-rule="nonzero"/><path fill="#0e606e" d="M 112.632812 86.832031 C 112.15625 86.832031 111.777344 86.710938 111.496094 86.472656 C 111.21875 86.234375 111.078125 85.894531 111.078125 85.453125 C 111.078125 85.214844 111.117188 85.015625 111.199219 84.855469 C 111.316406 84.65625 111.457031 84.496094 111.617188 84.375 C 111.734375 84.257812 111.894531 84.175781 112.09375 84.136719 C 112.292969 84.058594 112.492188 83.996094 112.691406 83.957031 L 114.25 83.65625 C 114.25 83.339844 114.148438 83.097656 113.949219 82.9375 C 113.789062 82.777344 113.550781 82.699219 113.230469 82.699219 C 112.992188 82.699219 112.792969 82.757812 112.632812 82.878906 C 112.433594 83 112.3125 83.199219 112.273438 83.476562 L 111.257812 83.476562 C 111.296875 83.117188 111.417969 82.820312 111.617188 82.578125 C 111.816406 82.339844 112.074219 82.160156 112.394531 82.039062 C 112.671875 81.921875 112.972656 81.859375 113.292969 81.859375 C 113.53125 81.859375 113.789062 81.902344 114.070312 81.980469 C 114.308594 82.058594 114.527344 82.179688 114.726562 82.339844 C 114.886719 82.5 115.007812 82.699219 115.085938 82.9375 C 115.164062 83.140625 115.207031 83.339844 115.207031 83.539062 C 115.246094 83.777344 115.265625 83.976562 115.265625 84.136719 L 115.265625 86.773438 L 114.25 86.773438 L 114.25 86.054688 C 114.128906 86.292969 113.96875 86.472656 113.769531 86.59375 C 113.609375 86.671875 113.429688 86.734375 113.230469 86.773438 C 113.070312 86.8125 112.871094 86.832031 112.632812 86.832031 Z M 112.871094 85.992188 C 113.113281 85.992188 113.332031 85.953125 113.53125 85.875 C 113.808594 85.714844 113.988281 85.535156 114.070312 85.335938 C 114.1875 85.09375 114.25 84.796875 114.25 84.4375 L 112.992188 84.675781 C 112.632812 84.757812 112.394531 84.855469 112.273438 84.976562 C 112.15625 85.09375 112.09375 85.234375 112.09375 85.394531 C 112.09375 85.59375 112.15625 85.753906 112.273438 85.875 C 112.433594 85.953125 112.632812 85.992188 112.871094 85.992188 Z M 112.871094 85.992188 " fill-opacity="1" fill-rule="nonzero"/><path fill="#0e606e" d="M 118.015625 86.773438 L 117.417969 86.773438 C 117.058594 86.773438 116.78125 86.691406 116.582031 86.53125 C 116.382812 86.375 116.28125 86.074219 116.28125 85.632812 L 116.28125 80.183594 L 117.300781 80.183594 L 117.300781 85.394531 C 117.300781 85.554688 117.320312 85.675781 117.359375 85.753906 C 117.4375 85.875 117.558594 85.933594 117.71875 85.933594 L 118.015625 85.933594 Z M 118.015625 86.773438 " fill-opacity="1" fill-rule="nonzero"/><path fill="#0e606e" d="M 121.1875 86.773438 L 120.289062 86.773438 C 119.972656 86.773438 119.710938 86.691406 119.511719 86.53125 C 119.3125 86.375 119.214844 86.074219 119.214844 85.632812 L 119.214844 82.757812 L 118.4375 82.757812 L 118.4375 81.980469 L 119.214844 81.980469 L 119.214844 80.183594 L 120.171875 80.183594 L 120.171875 81.980469 L 121.1875 81.980469 L 121.1875 82.757812 L 120.171875 82.757812 L 120.171875 85.335938 C 120.171875 85.496094 120.210938 85.632812 120.289062 85.753906 C 120.328125 85.875 120.449219 85.933594 120.648438 85.933594 L 121.1875 85.933594 Z M 121.1875 86.773438 " fill-opacity="1" fill-rule="nonzero"/><path fill="#0e606e" d="M 123.042969 86.773438 L 122.023438 86.773438 L 122.023438 80.183594 L 123.042969 80.183594 L 123.042969 82.578125 C 123.242188 82.300781 123.460938 82.121094 123.699219 82.039062 C 123.898438 81.921875 124.136719 81.859375 124.417969 81.859375 C 124.816406 81.859375 125.136719 81.941406 125.375 82.101562 C 125.574219 82.261719 125.734375 82.441406 125.851562 82.640625 C 125.972656 82.839844 126.03125 83.058594 126.03125 83.296875 C 126.074219 83.5 126.09375 83.71875 126.09375 83.957031 L 126.09375 86.773438 L 125.074219 86.773438 L 125.074219 83.957031 C 125.074219 83.476562 124.976562 83.136719 124.777344 82.9375 C 124.65625 82.777344 124.457031 82.699219 124.179688 82.699219 C 123.820312 82.699219 123.558594 82.800781 123.402344 83 C 123.28125 83.160156 123.179688 83.339844 123.101562 83.539062 C 123.0625 83.777344 123.042969 84.078125 123.042969 84.4375 Z M 123.042969 86.773438 " fill-opacity="1" fill-rule="nonzero"/><path fill="#0e606e" d="M 129.324219 86.832031 C 128.84375 86.832031 128.425781 86.734375 128.066406 86.53125 C 127.707031 86.332031 127.429688 86.035156 127.230469 85.632812 C 127.03125 85.273438 126.929688 84.835938 126.929688 84.316406 C 126.929688 83.835938 127.03125 83.417969 127.230469 83.058594 C 127.429688 82.660156 127.707031 82.359375 128.066406 82.160156 C 128.425781 81.960938 128.84375 81.859375 129.324219 81.859375 C 129.878906 81.859375 130.359375 82 130.757812 82.28125 C 131.15625 82.558594 131.417969 82.957031 131.535156 83.476562 L 130.460938 83.476562 C 130.378906 83.238281 130.238281 83.039062 130.039062 82.878906 C 129.839844 82.757812 129.601562 82.699219 129.324219 82.699219 C 128.921875 82.699219 128.605469 82.859375 128.367188 83.179688 C 128.125 83.457031 128.007812 83.835938 128.007812 84.316406 C 128.007812 84.835938 128.125 85.253906 128.367188 85.574219 C 128.605469 85.855469 128.921875 85.992188 129.324219 85.992188 C 129.640625 85.992188 129.878906 85.914062 130.039062 85.753906 C 130.238281 85.632812 130.378906 85.433594 130.460938 85.15625 L 131.535156 85.15625 C 131.457031 85.675781 131.195312 86.09375 130.757812 86.414062 C 130.359375 86.691406 129.878906 86.832031 129.324219 86.832031 Z M 129.324219 86.832031 " fill-opacity="1" fill-rule="nonzero"/><path fill="#0e606e" d="M 133.75 86.832031 C 133.308594 86.832031 132.953125 86.710938 132.671875 86.472656 C 132.351562 86.234375 132.195312 85.894531 132.195312 85.453125 C 132.195312 85.214844 132.253906 85.015625 132.375 84.855469 C 132.453125 84.65625 132.574219 84.496094 132.730469 84.375 C 132.890625 84.257812 133.050781 84.175781 133.210938 84.136719 C 133.410156 84.058594 133.628906 83.996094 133.867188 83.957031 L 135.363281 83.65625 C 135.363281 83.339844 135.285156 83.097656 135.125 82.9375 C 134.925781 82.777344 134.6875 82.699219 134.40625 82.699219 C 134.167969 82.699219 133.949219 82.757812 133.75 82.878906 C 133.550781 83 133.429688 83.199219 133.390625 83.476562 L 132.375 83.476562 C 132.453125 83.117188 132.59375 82.820312 132.792969 82.578125 C 132.992188 82.339844 133.230469 82.160156 133.507812 82.039062 C 133.789062 81.921875 134.089844 81.859375 134.40625 81.859375 C 134.6875 81.859375 134.945312 81.902344 135.183594 81.980469 C 135.464844 82.058594 135.683594 82.179688 135.84375 82.339844 C 136.003906 82.5 136.121094 82.699219 136.203125 82.9375 C 136.28125 83.140625 136.320312 83.339844 136.320312 83.539062 C 136.359375 83.777344 136.382812 83.976562 136.382812 84.136719 L 136.382812 86.773438 L 135.363281 86.773438 L 135.363281 86.054688 C 135.246094 86.292969 135.085938 86.472656 134.886719 86.59375 C 134.726562 86.671875 134.566406 86.734375 134.40625 86.773438 C 134.207031 86.8125 133.988281 86.832031 133.75 86.832031 Z M 133.988281 85.992188 C 134.226562 85.992188 134.445312 85.953125 134.644531 85.875 C 134.925781 85.714844 135.125 85.535156 135.246094 85.335938 C 135.324219 85.09375 135.363281 84.796875 135.363281 84.4375 L 134.109375 84.675781 C 133.789062 84.757812 133.550781 84.855469 133.390625 84.976562 C 133.269531 85.09375 133.210938 85.234375 133.210938 85.394531 C 133.210938 85.59375 133.289062 85.753906 133.449219 85.875 C 133.570312 85.953125 133.75 85.992188 133.988281 85.992188 Z M 133.988281 85.992188 " fill-opacity="1" fill-rule="nonzero"/><path fill="#0e606e" d="M 138.476562 86.773438 L 137.457031 86.773438 L 137.457031 81.980469 L 138.476562 81.980469 L 138.476562 82.578125 C 138.675781 82.300781 138.875 82.121094 139.074219 82.039062 C 139.3125 81.921875 139.570312 81.859375 139.851562 81.859375 L 139.96875 81.859375 L 139.96875 82.878906 L 139.730469 82.878906 C 139.332031 82.878906 139.03125 82.980469 138.832031 83.179688 C 138.554688 83.417969 138.433594 83.835938 138.476562 84.4375 Z M 138.476562 86.773438 " fill-opacity="1" fill-rule="nonzero"/><path fill="#0e606e" d="M 142.902344 86.832031 C 142.421875 86.832031 142.003906 86.734375 141.644531 86.53125 C 141.285156 86.332031 141.007812 86.035156 140.808594 85.632812 C 140.609375 85.273438 140.507812 84.855469 140.507812 84.375 C 140.507812 84.058594 140.566406 83.757812 140.6875 83.476562 C 140.769531 83.160156 140.90625 82.878906 141.105469 82.640625 C 141.304688 82.398438 141.546875 82.21875 141.824219 82.101562 C 142.144531 81.941406 142.503906 81.859375 142.902344 81.859375 C 143.300781 81.859375 143.679688 81.941406 144.039062 82.101562 C 144.398438 82.300781 144.695312 82.578125 144.933594 82.9375 C 145.175781 83.296875 145.292969 83.757812 145.292969 84.316406 L 145.292969 84.554688 L 141.523438 84.554688 C 141.566406 84.636719 141.585938 84.734375 141.585938 84.855469 C 141.625 84.9375 141.664062 85.015625 141.703125 85.09375 C 141.824219 85.375 141.984375 85.59375 142.183594 85.753906 C 142.421875 85.914062 142.660156 85.992188 142.902344 85.992188 C 143.21875 85.992188 143.480469 85.914062 143.679688 85.753906 C 143.878906 85.59375 144.039062 85.394531 144.15625 85.15625 L 145.175781 85.15625 C 145.09375 85.476562 144.953125 85.753906 144.753906 85.992188 C 144.554688 86.273438 144.296875 86.492188 143.976562 86.652344 C 143.699219 86.773438 143.339844 86.832031 142.902344 86.832031 Z M 141.585938 83.777344 L 144.21875 83.777344 C 144.21875 83.699219 144.195312 83.617188 144.15625 83.539062 C 144.117188 83.457031 144.078125 83.378906 144.039062 83.296875 C 143.917969 83.097656 143.757812 82.957031 143.558594 82.878906 C 143.359375 82.757812 143.140625 82.699219 142.902344 82.699219 C 142.382812 82.699219 142.003906 82.898438 141.765625 83.296875 C 141.726562 83.378906 141.683594 83.457031 141.644531 83.539062 C 141.644531 83.617188 141.625 83.699219 141.585938 83.777344 Z M 141.585938 83.777344 " fill-opacity="1" fill-rule="nonzero"/></svg>