<svg xmlns="http://www.w3.org/2000/svg" xmlns:xlink="http://www.w3.org/1999/xlink" width="500" zoomAndPan="magnify" viewBox="0 0 375 374.999991" height="500" preserveAspectRatio="xMidYMid meet" version="1.0"><defs><clipPath id="03b3915073"><path d="M 39.34375 39.34375 L 334.84375 39.34375 L 334.84375 334.84375 L 39.34375 334.84375 Z M 39.34375 39.34375 " clip-rule="nonzero"/></clipPath><clipPath id="40ae52a1d1"><path d="M 183 326 L 191 326 L 191 334.84375 L 183 334.84375 Z M 183 326 " clip-rule="nonzero"/></clipPath><clipPath id="faa8d58c2e"><path d="M 39.34375 39.34375 L 335.59375 39.34375 L 335.59375 335.59375 L 39.34375 335.59375 Z M 39.34375 39.34375 " clip-rule="nonzero"/></clipPath><clipPath id="b3568765b5"><path d="M 184 327 L 191 327 L 191 335.59375 L 184 335.59375 Z M 184 327 " clip-rule="nonzero"/></clipPath></defs><g clip-path="url(#03b3915073)"><path fill="#1800ad" d="M 230.886719 148.144531 L 226.039062 148.144531 L 226.039062 63.054688 C 226.039062 60.082031 223.988281 57.660156 221.464844 57.660156 L 152.738281 57.660156 C 150.214844 57.660156 148.164062 60.082031 148.164062 63.054688 L 148.164062 64.929688 C 141.808594 67.097656 135.867188 69.386719 129.828125 72.417969 L 129.828125 63.054688 C 129.828125 50.367188 139.796875 39.34375 152.738281 39.34375 L 221.46875 39.34375 C 234.40625 39.34375 244.375 50.367188 244.375 63.054688 L 244.375 129.828125 L 261.148438 129.828125 L 262.300781 131.527344 C 251.570312 136.570312 241.113281 142.164062 230.886719 148.164062 Z M 72.417969 244.355469 L 63.054688 244.355469 C 50.386719 244.355469 39.34375 234.386719 39.34375 221.449219 L 39.34375 152.71875 C 39.34375 139.777344 50.386719 129.808594 63.054688 129.808594 L 129.828125 129.808594 L 129.828125 113.035156 C 135.886719 108.894531 141.378906 105.238281 148.164062 102.128906 L 148.164062 148.144531 L 63.074219 148.144531 C 60.101562 148.144531 57.679688 150.195312 57.679688 152.71875 L 57.679688 221.449219 C 57.679688 223.96875 60.101562 226.023438 63.074219 226.023438 L 64.949219 226.023438 C 67.101562 232.296875 69.464844 238.414062 72.4375 244.359375 Z M 244.355469 301.769531 L 244.355469 311.132812 C 244.355469 323.816406 234.386719 334.84375 221.449219 334.84375 L 152.71875 334.84375 C 145.835938 334.84375 139.777344 331.734375 135.535156 326.75 C 132.015625 322.605469 129.828125 317.074219 129.828125 311.132812 L 129.828125 244.375 L 113.054688 244.375 C 108.914062 238.316406 105.257812 232.824219 102.148438 226.039062 L 148.164062 226.039062 L 148.164062 311.132812 C 148.164062 314.101562 150.234375 316.527344 152.738281 316.527344 L 221.46875 316.527344 C 223.988281 316.527344 226.042969 314.101562 226.042969 311.132812 L 226.042969 309.253906 C 232.316406 307.105469 238.433594 304.738281 244.378906 301.769531 Z M 297.722656 126.113281 C 258.980469 146.1875 206.394531 193.417969 180.90625 225.84375 C 166.089844 206.121094 148.476562 182.117188 130.042969 169.566406 C 148.710938 174.609375 163.957031 184.679688 180.90625 192.222656 C 215.71875 165.289062 255.792969 140.089844 297.722656 126.113281 Z M 179.539062 148.359375 C 186.925781 148.359375 192.925781 154.339844 192.925781 161.75 C 192.925781 169.136719 186.925781 175.140625 179.539062 175.140625 C 172.148438 175.140625 166.148438 169.136719 166.148438 161.75 C 166.148438 154.359375 172.128906 148.359375 179.539062 148.359375 Z M 334.84375 152.738281 L 334.84375 221.46875 C 334.84375 234.40625 323.796875 244.375 311.132812 244.375 L 244.355469 244.375 L 244.355469 261.148438 C 238.296875 265.292969 232.804688 268.949219 226.019531 272.054688 L 226.019531 226.042969 L 311.113281 226.042969 C 314.082031 226.042969 316.507812 223.988281 316.507812 221.46875 L 316.507812 152.738281 C 316.507812 150.214844 314.082031 148.164062 311.113281 148.164062 L 309.234375 148.164062 C 307.398438 142.828125 305.5 137.746094 303.097656 132.601562 L 308.21875 129.828125 L 311.113281 129.828125 C 323.796875 129.828125 334.824219 139.796875 334.824219 152.738281 Z M 334.84375 152.738281 " fill-opacity="1" fill-rule="nonzero"/></g><path fill="#ff9700" d="M 269.847656 128.070312 C 264.882812 121.128906 259.058594 114.816406 252.546875 109.324219 L 252.546875 86.53125 C 266.328125 95.523438 278.195312 107.308594 287.246094 121.03125 C 281.359375 123.183594 275.574219 125.546875 269.847656 128.070312 Z M 283.980469 217.832031 C 287.050781 208.136719 288.710938 197.796875 288.710938 187.082031 C 288.710938 172.519531 285.640625 158.699219 280.148438 146.167969 C 285.328125 142.691406 290.585938 139.425781 295.863281 136.453125 C 303.039062 151.839844 307.046875 168.980469 307.046875 187.0625 C 307.046875 197.695312 305.660156 208 303.078125 217.8125 L 284 217.8125 Z M 156.335938 283.980469 C 166.03125 287.050781 176.371094 288.710938 187.082031 288.710938 C 218.28125 288.710938 246.175781 274.65625 264.824219 252.527344 L 287.617188 252.527344 C 265.449219 286.5 227.820312 307.027344 187.082031 307.027344 C 176.449219 307.027344 166.148438 305.640625 156.335938 303.039062 L 156.335938 283.960938 Z M 90.1875 156.335938 C 87.117188 166.03125 85.457031 176.371094 85.457031 187.082031 C 85.457031 218.28125 99.511719 246.175781 121.636719 264.824219 L 121.636719 287.617188 C 87.664062 265.449219 67.140625 227.820312 67.140625 187.0625 C 67.140625 176.429688 68.527344 166.128906 71.105469 156.316406 L 90.1875 156.316406 Z M 187.082031 67.121094 C 197.71875 67.121094 208.019531 68.507812 217.832031 71.085938 L 217.832031 90.167969 C 208.136719 87.097656 197.796875 85.4375 187.082031 85.4375 C 155.886719 85.4375 127.992188 99.492188 109.34375 121.617188 L 86.550781 121.617188 C 108.757812 87.585938 146.445312 67.121094 187.101562 67.121094 Z M 187.082031 67.121094 " fill-opacity="1" fill-rule="nonzero"/><g clip-path="url(#40ae52a1d1)"><path fill="#333333" d="M 183.714844 334.789062 L 183.722656 334.789062 L 183.792969 334.84375 C 185.953125 332.035156 188.207031 329.234375 190.46875 326.429688 C 188.222656 329.214844 185.871094 331.996094 183.714844 334.789062 Z M 183.714844 334.789062 " fill-opacity="1" fill-rule="nonzero"/></g><g clip-path="url(#faa8d58c2e)"><path fill="#1800ad" d="M 231.414062 148.441406 L 226.550781 148.441406 L 226.550781 63.117188 C 226.550781 60.140625 224.492188 57.707031 221.964844 57.707031 L 153.046875 57.707031 C 150.519531 57.707031 148.460938 60.136719 148.460938 63.117188 L 148.460938 65 C 142.089844 67.175781 136.132812 69.46875 130.074219 72.507812 L 130.074219 63.117188 C 130.074219 50.398438 140.070312 39.34375 153.046875 39.34375 L 221.964844 39.34375 C 234.941406 39.34375 244.9375 50.398438 244.9375 63.117188 L 244.9375 130.074219 L 261.753906 130.074219 L 262.910156 131.78125 C 252.152344 136.835938 241.664062 142.445312 231.414062 148.460938 Z M 72.507812 244.917969 L 63.117188 244.917969 C 50.417969 244.917969 39.34375 234.921875 39.34375 221.945312 L 39.34375 153.027344 C 39.34375 140.050781 50.417969 130.054688 63.117188 130.054688 L 130.074219 130.054688 L 130.074219 113.238281 C 136.152344 109.082031 141.660156 105.417969 148.460938 102.300781 L 148.460938 148.441406 L 63.136719 148.441406 C 60.160156 148.441406 57.726562 150.5 57.726562 153.027344 L 57.726562 221.945312 C 57.726562 224.472656 60.160156 226.53125 63.136719 226.53125 L 65.019531 226.53125 C 67.175781 232.824219 69.546875 238.960938 72.527344 244.917969 Z M 244.917969 302.488281 L 244.917969 311.875 C 244.917969 324.597656 234.921875 335.652344 221.945312 335.652344 L 153.027344 335.652344 C 146.128906 335.652344 140.050781 332.535156 135.800781 327.535156 C 132.269531 323.382812 130.074219 317.835938 130.074219 311.875 L 130.074219 244.9375 L 113.257812 244.9375 C 109.101562 238.863281 105.4375 233.351562 102.320312 226.550781 L 148.460938 226.550781 L 148.460938 311.875 C 148.460938 314.855469 150.539062 317.285156 153.046875 317.285156 L 221.964844 317.285156 C 224.492188 317.285156 226.550781 314.855469 226.550781 311.875 L 226.550781 309.992188 C 232.84375 307.835938 238.980469 305.464844 244.9375 302.484375 Z M 298.429688 126.351562 C 259.578125 146.480469 206.851562 193.835938 181.292969 226.355469 C 166.4375 206.578125 148.773438 182.507812 130.292969 169.925781 C 149.011719 174.980469 164.300781 185.074219 181.292969 192.640625 C 216.203125 165.632812 256.382812 140.367188 298.429688 126.351562 Z M 179.921875 148.65625 C 187.332031 148.65625 193.347656 154.65625 193.347656 162.085938 C 193.347656 169.492188 187.332031 175.511719 179.921875 175.511719 C 172.511719 175.511719 166.492188 169.492188 166.492188 162.085938 C 166.496094 154.675781 172.492188 148.65625 179.921875 148.65625 Z M 335.652344 153.046875 L 335.652344 221.964844 C 335.652344 234.941406 324.578125 244.9375 311.875 244.9375 L 244.917969 244.9375 L 244.917969 261.753906 C 238.84375 265.910156 233.332031 269.574219 226.53125 272.691406 L 226.53125 226.550781 L 311.855469 226.550781 C 314.835938 226.550781 317.265625 224.492188 317.265625 221.964844 L 317.265625 153.046875 C 317.265625 150.519531 314.835938 148.460938 311.855469 148.460938 L 309.972656 148.460938 C 308.132812 143.109375 306.230469 138.015625 303.820312 132.859375 L 308.953125 130.074219 L 311.855469 130.074219 C 324.578125 130.074219 335.632812 140.070312 335.632812 153.046875 Z M 335.652344 153.046875 " fill-opacity="1" fill-rule="nonzero"/></g><path fill="#ff9700" d="M 270.476562 128.3125 C 265.5 121.351562 259.660156 115.023438 253.132812 109.515625 L 253.132812 86.660156 C 266.949219 95.675781 278.847656 107.496094 287.921875 121.253906 C 282.023438 123.410156 276.222656 125.78125 270.476562 128.3125 Z M 284.648438 218.320312 C 287.726562 208.597656 289.394531 198.230469 289.394531 187.488281 C 289.394531 172.882812 286.316406 159.027344 280.808594 146.460938 C 286 142.972656 291.273438 139.699219 296.566406 136.71875 C 303.761719 152.144531 307.777344 169.335938 307.777344 187.46875 C 307.777344 198.128906 306.386719 208.460938 303.800781 218.300781 L 284.667969 218.300781 Z M 156.65625 284.648438 C 166.375 287.726562 176.746094 289.394531 187.488281 289.394531 C 218.769531 289.394531 246.742188 275.300781 265.441406 253.113281 L 288.296875 253.113281 C 266.070312 287.179688 228.335938 307.757812 187.488281 307.757812 C 176.824219 307.757812 166.496094 306.367188 156.65625 303.761719 L 156.65625 284.628906 Z M 90.324219 156.65625 C 87.246094 166.375 85.582031 176.746094 85.582031 187.488281 C 85.582031 218.769531 99.675781 246.742188 121.863281 265.441406 L 121.863281 288.296875 C 87.796875 266.070312 67.214844 228.335938 67.214844 187.46875 C 67.214844 176.804688 68.605469 166.476562 71.195312 156.636719 L 90.324219 156.636719 Z M 187.488281 67.195312 C 198.148438 67.195312 208.480469 68.585938 218.320312 71.175781 L 218.320312 90.304688 C 208.597656 87.226562 198.230469 85.5625 187.488281 85.5625 C 156.203125 85.5625 128.234375 99.65625 109.535156 121.84375 L 86.679688 121.84375 C 108.945312 87.71875 146.738281 67.195312 187.507812 67.195312 Z M 187.488281 67.195312 " fill-opacity="1" fill-rule="nonzero"/><g clip-path="url(#b3568765b5)"><path fill="#333333" d="M 184.113281 335.597656 L 184.117188 335.597656 L 184.1875 335.652344 C 186.355469 332.835938 188.617188 330.027344 190.882812 327.214844 C 188.628906 330.011719 186.273438 332.796875 184.113281 335.597656 Z M 184.113281 335.597656 " fill-opacity="1" fill-rule="nonzero"/></g></svg>